Normalized EMG Linear Envelopes
nRows=149
nColumns=4

endheader
time	 med_gas_r	  soleus_r	 tib_ant_r	
4.18723	  0.064969	  0.066882	  0.025293	
4.24973	  0.069144	  0.073465	  0.025021	
4.31222	  0.073529	  0.077189	  0.024901	
4.37472	  0.077074	  0.077701	  0.025116	
4.43722	  0.079661	  0.076598	  0.025742	
4.49971	  0.082633	  0.075146	  0.026469	
4.56221	  0.086790	  0.073666	  0.026716	
4.6247	  0.092007	  0.072344	  0.026195	
4.6872	  0.096479	  0.071376	  0.025253	
4.7497	  0.096421	  0.070611	  0.024521	
4.81219	  0.091187	  0.069642	  0.024365	
4.87469	  0.086003	  0.068320	  0.024786	
4.93718	  0.086082	  0.066999	  0.025638	
4.99968	  0.091831	  0.066101	  0.026641	
5.06218	  0.099549	  0.065817	  0.027343	
5.12467	  0.104568	  0.066365	  0.027395	
5.18717	  0.105447	  0.067938	  0.026926	
5.24966	  0.104115	  0.070081	  0.026525	
5.31216	  0.102210	  0.071544	  0.026635	
5.37466	  0.100003	  0.071182	  0.027027	
5.43715	  0.097259	  0.068871	  0.027074	
5.49965	  0.094336	  0.065562	  0.026470	
5.56214	  0.092811	  0.062944	  0.025594	
5.62464	  0.092571	  0.062650	  0.025076	
5.68714	  0.090738	  0.064925	  0.025016	
5.74963	  0.086787	  0.068301	  0.024984	
5.81213	  0.084122	  0.070884	  0.024778	
5.87462	  0.085308	  0.071700	  0.024683	
5.93712	  0.090098	  0.070925	  0.024896	
5.99962	  0.096409	  0.069263	  0.025152	
6.06211	  0.100629	  0.067393	  0.025111	
6.12461	  0.099811	  0.065852	  0.024838	
6.1871	  0.094414	  0.064628	  0.024586	
6.2496	  0.086993	  0.062815	  0.024230	
6.3121	  0.080082	  0.059887	  0.023356	
6.37459	  0.079057	  0.058045	  0.022053	
6.43709	  0.095786	  0.063358	  0.021446	
6.49958	  0.146000	  0.085089	  0.023758	
6.56208	  0.240244	  0.132357	  0.032068	
6.62458	  0.370987	  0.206695	  0.048645	
6.68707	  0.507423	  0.296620	  0.071871	
6.74957	  0.613184	  0.382007	  0.095292	
6.81206	  0.671178	  0.444399	  0.111200	
6.87456	  0.684898	  0.476669	  0.115952	
6.93706	  0.665529	  0.486825	  0.112060	
6.99955	  0.629196	  0.488725	  0.105189	
7.06205	  0.594846	  0.488127	  0.099961	
7.12454	  0.572304	  0.482989	  0.098766	
7.18704	  0.557849	  0.475864	  0.101980	
7.24954	  0.545019	  0.478241	  0.107606	
7.31203	  0.532509	  0.497434	  0.111981	
7.37453	  0.520257	  0.523469	  0.112014	
7.43702	  0.506750	  0.537426	  0.107361	
7.49952	  0.493939	  0.530159	  0.100635	
7.56202	  0.488213	  0.507295	  0.095226	
7.62451	  0.493947	  0.481332	  0.093302	
7.68701	  0.510152	  0.463267	  0.094946	
7.7495	  0.531074	  0.458399	  0.097745	
7.812	  0.547446	  0.467216	  0.098702	
7.8745	  0.551353	  0.486797	  0.097370	
7.93699	  0.539622	  0.507941	  0.095479	
7.99949	  0.513226	  0.516366	  0.093895	
8.06198	  0.479552	  0.504322	  0.091833	
8.12448	  0.451147	  0.479536	  0.088612	
8.18698	  0.435103	  0.459192	  0.084586	
8.24947	  0.429342	  0.456499	  0.080562	
8.31197	  0.431125	  0.474295	  0.077410	
8.37446	  0.439274	  0.506540	  0.075844	
8.43696	  0.449094	  0.539316	  0.075652	
8.49946	  0.455795	  0.554117	  0.075539	
8.56195	  0.461388	  0.540299	  0.074438	
8.62445	  0.470746	  0.507658	  0.072619	
8.68694	  0.483116	  0.483855	  0.071355	
8.74944	  0.492995	  0.494271	  0.072010	
8.81194	  0.496502	  0.540179	  0.075120	
8.87443	  0.492458	  0.599233	  0.079678	
8.93693	  0.480375	  0.648301	  0.083778	
8.99942	  0.461606	  0.678237	  0.086440	
9.06192	  0.442650	  0.688096	  0.088432	
9.12442	  0.434705	  0.678220	  0.090940	
9.18691	  0.445342	  0.651745	  0.093678	
9.24941	  0.468507	  0.617598	  0.094841	
9.3119	  0.486392	  0.589139	  0.093258	
9.3744	  0.484570	  0.576568	  0.089799	
9.4369	  0.463910	  0.580315	  0.086333	
9.49939	  0.437641	  0.592756	  0.084126	
9.56189	  0.420007	  0.605461	  0.083130	
9.62438	  0.418117	  0.615499	  0.082261	
9.68688	  0.429971	  0.623251	  0.080833	
9.74938	  0.446284	  0.624047	  0.079425	
9.81187	  0.457191	  0.610776	  0.078677	
9.87437	  0.460849	  0.588560	  0.078282	
9.93686	  0.464191	  0.576898	  0.078177	
9.99936	  0.475130	  0.590861	  0.079396	
10.0619	  0.494809	  0.625917	  0.082095	
10.1244	  0.514884	  0.663819	  0.084157	
10.1868	  0.522603	  0.686853	  0.083846	
10.2493	  0.515073	  0.687520	  0.082085	
10.3118	  0.505939	  0.673867	  0.080408	
10.3743	  0.506693	  0.664438	  0.079206	
10.4368	  0.508244	  0.669517	  0.078992	
10.4993	  0.493718	  0.678368	  0.080557	
10.5618	  0.461490	  0.673593	  0.083488	
10.6243	  0.428782	  0.655231	  0.086629	
10.6868	  0.417456	  0.639744	  0.089698	
10.7493	  0.435989	  0.640892	  0.093095	
10.8118	  0.474687	  0.660942	  0.096568	
10.8743	  0.516383	  0.694223	  0.098968	
10.9368	  0.545425	  0.731640	  0.099302	
10.9993	  0.553490	  0.761071	  0.097647	
11.0618	  0.546016	  0.771494	  0.094768	
11.1243	  0.535317	  0.764063	  0.091403	
11.1868	  0.525621	  0.750712	  0.088448	
11.2493	  0.514228	  0.739582	  0.087338	
11.3118	  0.502526	  0.733314	  0.089248	
11.3743	  0.496571	  0.733947	  0.093244	
11.4368	  0.501583	  0.735182	  0.096017	
11.4993	  0.518005	  0.724255	  0.095043	
11.5618	  0.537418	  0.701759	  0.091222	
11.6243	  0.547847	  0.683386	  0.087034	
11.6868	  0.548636	  0.680460	  0.083778	
11.7492	  0.550033	  0.691117	  0.081668	
11.8117	  0.558328	  0.707030	  0.080806	
11.8742	  0.571837	  0.721878	  0.081344	
11.9367	  0.583762	  0.731236	  0.083143	
11.9992	  0.583876	  0.725639	  0.085080	
12.0617	  0.565675	  0.695852	  0.085401	
12.1242	  0.530404	  0.646153	  0.083270	
12.1867	  0.484338	  0.587282	  0.078992	
12.2492	  0.438129	  0.522809	  0.073010	
12.3117	  0.403310	  0.456856	  0.066248	
12.3742	  0.383581	  0.399355	  0.060737	
12.4367	  0.371742	  0.352689	  0.058311	
12.4992	  0.357951	  0.309192	  0.058867	
12.5617	  0.340825	  0.263383	  0.060482	
12.6242	  0.326031	  0.215365	  0.061135	
12.6867	  0.316379	  0.169478	  0.060218	
12.7492	  0.311750	  0.133968	  0.058306	
12.8117	  0.313163	  0.112759	  0.056049	
12.8742	  0.317678	  0.100688	  0.053974	
12.9367	  0.316017	  0.091841	  0.052621	
12.9992	  0.302870	  0.085264	  0.052194	
13.0617	  0.283520	  0.082057	  0.052662	
13.1242	  0.266338	  0.082568	  0.053673	
13.1867	  0.256333	  0.085458	  0.053851	
13.2492	  0.253198	  0.088229	  0.051683	
13.3116	  0.244775	  0.089535	  0.047536	
13.3741	  0.212402	  0.090077	  0.043278	
13.4366	  0.154971	  0.090757	  0.039850	
